<svg width="100" height="100" viewBox="0 0 100 100" fill="none" xmlns="http://www.w3.org/2000/svg">
<path d="M50 0L23.6328 50L50 100C77.6143 100 100 77.6143 100 50C100 22.3857 77.6143 0 50 0Z" fill="#FFE3F1"/>
<path d="M0 50C0 77.6143 22.3857 100 50 100V0C22.3857 0 0 22.3857 0 50Z" fill="#FFE3F1"/>
<path d="M50 28.0273L38.4128 50L50 71.9727C62.1351 71.9727 71.9726 62.1352 71.9726 50C71.9726 37.8648 62.1351 28.0273 50 28.0273Z" fill="#DF87BC"/>
<path d="M28.0273 50C28.0273 62.1352 37.8648 71.9727 50 71.9727V28.0273C37.8648 28.0273 28.0273 37.8648 28.0273 50Z" fill="#FEBAE1"/>
<path d="M50 39.7461L44.5925 50L50 60.2539C55.663 60.2539 60.2539 55.6631 60.2539 50C60.2539 44.3369 55.663 39.7461 50 39.7461Z" fill="#FF94D4"/>
<path d="M39.7461 50C39.7461 55.6631 44.3369 60.2539 50 60.2539V39.7461C44.3369 39.7461 39.7461 44.3369 39.7461 50Z" fill="#FF94D4"/>
</svg>
